<svg width="50" height="50" viewBox="311 0 50 50" fill="none" xmlns="http://www.w3.org/2000/svg">
<rect x="50" width="50" height="50" rx="25" fill="white"/>
<path d="M330 22.8438V16.75C330 16.5511 329.921 16.3603 329.78 16.2197C329.64 16.079 329.449 16 329.25 16C329.051 16 328.86 16.079 328.72 16.2197C328.579 16.3603 328.5 16.5511 328.5 16.75V22.8438C327.855 23.009 327.283 23.3843 326.874 23.9105C326.466 24.4367 326.244 25.0839 326.244 25.75C326.244 26.4161 326.466 27.0633 326.874 27.5895C327.283 28.1157 327.855 28.491 328.5 28.6562V33.25C328.5 33.4489 328.579 33.6397 328.72 33.7803C328.86 33.921 329.051 34 329.25 34C329.449 34 329.64 33.921 329.78 33.7803C329.921 33.6397 330 33.4489 330 33.25V28.6562C330.645 28.491 331.217 28.1157 331.626 27.5895C332.034 27.0633 332.256 26.4161 332.256 25.75C332.256 25.0839 332.034 24.4367 331.626 23.9105C331.217 23.3843 330.645 23.009 330 22.8438ZM329.25 27.25C328.953 27.25 328.663 27.162 328.417 26.9972C328.17 26.8324 327.978 26.5981 327.864 26.324C327.751 26.0499 327.721 25.7483 327.779 25.4574C327.837 25.1664 327.98 24.8991 328.189 24.6893C328.399 24.4796 328.666 24.3367 328.957 24.2788C329.248 24.2209 329.55 24.2506 329.824 24.3642C330.098 24.4777 330.332 24.67 330.497 24.9166C330.662 25.1633 330.75 25.4533 330.75 25.75C330.75 26.1478 330.592 26.5294 330.311 26.8107C330.029 27.092 329.648 27.25 329.25 27.25ZM336.75 18.3438V16.75C336.75 16.5511 336.671 16.3603 336.53 16.2197C336.39 16.079 336.199 16 336 16C335.801 16 335.61 16.079 335.47 16.2197C335.329 16.3603 335.25 16.5511 335.25 16.75V18.3438C334.605 18.509 334.033 18.8843 333.624 19.4105C333.216 19.9367 332.994 20.5839 332.994 21.25C332.994 21.9161 333.216 22.5633 333.624 23.0895C334.033 23.6157 334.605 23.991 335.25 24.1562V33.25C335.25 33.4489 335.329 33.6397 335.47 33.7803C335.61 33.921 335.801 34 336 34C336.199 34 336.39 33.921 336.53 33.7803C336.671 33.6397 336.75 33.4489 336.75 33.25V24.1562C337.395 23.991 337.967 23.6157 338.376 23.0895C338.784 22.5633 339.006 21.9161 339.006 21.25C339.006 20.5839 338.784 19.9367 338.376 19.4105C337.967 18.8843 337.395 18.509 336.75 18.3438ZM336 22.75C335.703 22.75 335.413 22.662 335.167 22.4972C334.92 22.3324 334.728 22.0981 334.614 21.824C334.501 21.5499 334.471 21.2483 334.529 20.9574C334.587 20.6664 334.73 20.3991 334.939 20.1893C335.149 19.9796 335.416 19.8367 335.707 19.7788C335.998 19.7209 336.3 19.7506 336.574 19.8642C336.848 19.9777 337.082 20.17 337.247 20.4166C337.412 20.6633 337.5 20.9533 337.5 21.25C337.5 21.6478 337.342 22.0294 337.061 22.3107C336.779 22.592 336.398 22.75 336 22.75ZM345.75 28.75C345.749 28.0849 345.528 27.4388 345.121 26.9129C344.714 26.387 344.144 26.011 343.5 25.8438V16.75C343.5 16.5511 343.421 16.3603 343.28 16.2197C343.14 16.079 342.949 16 342.75 16C342.551 16 342.36 16.079 342.22 16.2197C342.079 16.3603 342 16.5511 342 16.75V25.8438C341.355 26.009 340.783 26.3843 340.374 26.9105C339.966 27.4367 339.744 28.0839 339.744 28.75C339.744 29.4161 339.966 30.0633 340.374 30.5895C340.783 31.1157 341.355 31.491 342 31.6562V33.25C342 33.4489 342.079 33.6397 342.22 33.7803C342.36 33.921 342.551 34 342.75 34C342.949 34 343.14 33.921 343.28 33.7803C343.421 33.6397 343.5 33.4489 343.5 33.25V31.6562C344.144 31.489 344.714 31.113 345.121 30.5871C345.528 30.0612 345.749 29.4151 345.75 28.75ZM342.75 30.25C342.453 30.25 342.163 30.162 341.917 29.9972C341.67 29.8324 341.478 29.5981 341.364 29.324C341.251 29.0499 341.221 28.7483 341.279 28.4574C341.337 28.1664 341.48 27.8991 341.689 27.6893C341.899 27.4796 342.166 27.3367 342.457 27.2788C342.748 27.2209 343.05 27.2506 343.324 27.3642C343.598 27.4777 343.832 27.67 343.997 27.9166C344.162 28.1633 344.25 28.4533 344.25 28.75C344.25 29.1478 344.092 29.5294 343.811 29.8107C343.529 30.092 343.148 30.25 342.75 30.25Z" fill="#3553FD"/>
</svg>
